<svg xmlns="http://www.w3.org/2000/svg"  viewBox="0 0 50 50" width="50px" height="50px" baseProfile="basic"><path fill="#fff" d="M40.378,30.731l-3.92,2.64l-19.25-29.34l28.729,16.38L40.378,30.731z"/><path d="M36.457,34.371c-0.065,0-0.132-0.007-0.197-0.02c-0.263-0.053-0.492-0.208-0.639-0.432L16.371,4.58 c-0.254-0.387-0.209-0.896,0.107-1.233c0.317-0.339,0.822-0.411,1.224-0.185l28.729,16.38c0.472,0.27,0.643,0.865,0.386,1.344 l-5.559,10.32c-0.077,0.143-0.188,0.265-0.322,0.354l-3.921,2.64C36.85,34.313,36.654,34.371,36.457,34.371z M20.324,6.96 l16.414,25.017l2.876-1.937l4.979-9.244L20.324,6.96z"/><path fill="#fff" d="M36.516,33.371l-15.213,12.6l-11.761-4.62l-4.564-28.86l12.229-8.46L36.516,33.371z"/><path d="M21.303,46.972c-0.123,0-0.247-0.022-0.365-0.069l-11.761-4.62c-0.33-0.13-0.567-0.424-0.622-0.774l-4.563-28.86 c-0.061-0.38,0.103-0.76,0.418-0.979l12.229-8.46c0.222-0.153,0.493-0.213,0.76-0.159c0.265,0.051,0.497,0.207,0.645,0.432 l19.309,29.34c0.28,0.426,0.195,0.995-0.197,1.32L21.94,46.742C21.758,46.893,21.532,46.972,21.303,46.972z M10.44,40.63 l10.679,4.195l14.068-11.652L16.935,5.436l-10.87,7.521L10.44,40.63z"/><path fill="#fff" d="M45.936,38.831l-12.053,7.2l-7.723-4.14l-3.218-29.16l7.958-8.04l3.628,9L45.936,38.831z"/><path d="M33.883,47.031c-0.162,0-0.324-0.039-0.473-0.118l-7.724-4.14c-0.29-0.156-0.485-0.444-0.521-0.772l-3.218-29.16 c-0.033-0.3,0.071-0.599,0.283-0.813l7.957-8.04c0.236-0.24,0.576-0.344,0.908-0.277c0.33,0.066,0.604,0.294,0.73,0.606l3.628,9 l11.393,25.101c0.211,0.463,0.039,1.011-0.397,1.271l-12.054,7.2C34.238,46.984,34.061,47.031,33.883,47.031z M27.096,41.259 l6.761,3.624l10.8-6.452l-11.04-24.326L30.54,6.476l-6.553,6.62L27.096,41.259z"/><path fill="#fff" d="M36.516,33.371l-15.213,12.6l-11.761-4.62l-4.564-28.86l12.229-8.46L36.516,33.371z"/><path d="M21.303,46.972c-0.123,0-0.247-0.022-0.365-0.069l-11.761-4.62c-0.33-0.13-0.567-0.424-0.622-0.774l-4.563-28.86 c-0.061-0.38,0.103-0.76,0.418-0.979l12.229-8.46c0.222-0.153,0.493-0.213,0.76-0.159c0.265,0.051,0.497,0.207,0.645,0.432 l19.309,29.34c0.28,0.426,0.195,0.995-0.197,1.32L21.94,46.742C21.758,46.893,21.532,46.972,21.303,46.972z M10.44,40.63 l10.679,4.195l14.068-11.652L16.935,5.436l-10.87,7.521L10.44,40.63z"/><g><path fill="#fff" d="M37.986,37.031h-24v-24h24V37.031z"/><path d="M37.986,38.031h-24c-0.553,0-1-0.447-1-1v-24c0-0.553,0.447-1,1-1h24c0.553,0,1,0.447,1,1v24 C38.986,37.584,38.539,38.031,37.986,38.031z M14.986,36.031h22v-22h-22V36.031z"/></g><path d="M26,33h-9v-2h9V33z"/><path d="M26.866,25.013h3.385c2.786,0,4.749-2.109,4.749-4.616c0-2.451-1.894-4.388-4.68-4.388h-3.454V25.013z M30.32,17.767c1.616,0,2.674,1.119,2.674,2.769c0,1.591-1.114,2.71-2.674,2.71l-1.417,0.003v-5.483L30.32,17.767z"/><path d="M16.992,25h2.006v-2.734h1.504L22.341,25h2.284l-2.173-3.189c0.557-0.228,1.003-0.57,1.337-1.025	s0.501-1.025,0.501-1.766v-0.057c0-0.854-0.223-1.538-0.724-2.05c-0.613-0.57-1.449-0.911-2.563-0.911h-4.012V25z M18.998,20.33	v-2.563h1.894c0.501,0,0.836,0.171,1.114,0.342c0.279,0.228,0.39,0.513,0.39,0.968v0.057c0,0.342-0.111,0.683-0.39,0.911	c-0.279,0.228-0.656,0.285-1.102,0.285H18.998z"/></svg>